<svg width="28" height="30" viewBox="0 0 28 30"  xmlns="http://www.w3.org/2000/svg">
<g filter="url(#filter0_d_2111_4966)">
<path d="M23.995 22L24 21.9992V14.6642C24 11.0758 23.2275 8.31167 19.0325 8.31167C17.0158 8.31167 15.6625 9.41833 15.11 10.4675H15.0517V8.64667H11.0742V21.9992H15.2158V15.3875C15.2158 13.6467 15.5458 11.9633 17.7017 11.9633C19.8258 11.9633 19.8575 13.95 19.8575 15.4992V22H23.995Z" />
<path d="M4.32999 8.6475H8.47666V22H4.32999V8.6475Z" />
<path d="M6.40167 2C5.07583 2 4 3.07583 4 4.40167C4 5.7275 5.07583 6.82583 6.40167 6.82583C7.7275 6.82583 8.80333 5.7275 8.80333 4.40167C8.8025 3.07583 7.72667 2 6.40167 2Z" />
</g>

<filter id="filter0_d_2111_4966" x="-2" y="0" width="32" height="32" filterUnits="userSpaceOnUse" color-interpolation-filters="sRGB">
<feColorMatrix in="SourceAlpha" type="matrix" result="hardAlpha"/>
</filter>
</svg>
